<svg width="120" height="40" viewBox="0 0 120 40" fill="none" xmlns="http://www.w3.org/2000/svg">
<rect width="120" height="40" rx="20" fill="#FFF0E6"/>
<path d="M35.0145 19.192C35.6652 19.3733 36.1665 19.6987 36.5185 20.168C36.8812 20.6373 37.0625 21.224 37.0625 21.928C37.0625 22.8987 36.7265 23.656 36.0545 24.2C35.3932 24.7333 34.4652 25 33.2705 25H29.1905C28.9345 25 28.7318 24.9307 28.5825 24.792C28.4438 24.6427 28.3745 24.4453 28.3745 24.2V14.52C28.3745 14.2747 28.4438 14.0827 28.5825 13.944C28.7318 13.7947 28.9345 13.72 29.1905 13.72H33.0945C34.2572 13.72 35.1638 13.9813 35.8145 14.504C36.4758 15.016 36.8065 15.736 36.8065 16.664C36.8065 17.2613 36.6465 17.7787 36.3265 18.216C36.0172 18.6533 35.5798 18.9787 35.0145 19.192ZM29.9905 18.6H32.8385C34.4172 18.6 35.2065 18.0027 35.2065 16.808C35.2065 16.2107 35.0092 15.768 34.6145 15.48C34.2305 15.192 33.6385 15.048 32.8385 15.048H29.9905V18.6ZM33.0945 23.672C33.9158 23.672 34.5185 23.5227 34.9025 23.224C35.2865 22.9253 35.4785 22.4613 35.4785 21.832C35.4785 21.192 35.2812 20.7173 34.8865 20.408C34.5025 20.088 33.9052 19.928 33.0945 19.928H29.9905V23.672H33.0945ZM39.8263 25C39.5703 25 39.3676 24.9307 39.2183 24.792C39.0689 24.6533 38.9943 24.4613 38.9943 24.216V17.8C38.9943 17.5653 39.0689 17.3787 39.2183 17.24C39.3676 17.1013 39.5649 17.032 39.8103 17.032C40.0556 17.032 40.2476 17.1013 40.3863 17.24C40.5356 17.3787 40.6103 17.5653 40.6103 17.8V19.896H41.7943C43.7889 19.896 44.7863 20.7173 44.7863 22.36C44.7863 22.936 44.6423 23.4267 44.3543 23.832C44.0663 24.2267 43.6876 24.52 43.2183 24.712C42.7489 24.904 42.2476 25 41.7143 25H39.8263ZM46.7383 25.08C46.4929 25.08 46.2956 25.0107 46.1463 24.872C45.9969 24.7333 45.9223 24.5467 45.9223 24.312V17.8C45.9223 17.5653 45.9969 17.3787 46.1463 17.24C46.2956 17.1013 46.4929 17.032 46.7383 17.032C46.9836 17.032 47.1756 17.1013 47.3142 17.24C47.4636 17.3787 47.5383 17.5653 47.5383 17.8V24.312C47.5383 24.5467 47.4636 24.7333 47.3142 24.872C47.1756 25.0107 46.9836 25.08 46.7383 25.08ZM41.4103 23.848C41.8903 23.848 42.3063 23.736 42.6583 23.512C43.0103 23.2773 43.1863 22.904 43.1863 22.392C43.1863 21.8587 43.0263 21.5013 42.7063 21.32C42.3863 21.1387 41.9543 21.048 41.4103 21.048H40.5943V23.848H41.4103ZM53.313 25.112C52.0223 25.112 51.057 24.6747 50.417 23.8C49.7877 22.9253 49.473 21.816 49.473 20.472C49.473 19.2453 49.585 18.2427 49.809 17.464C50.033 16.6853 50.3637 16.072 50.801 15.624C51.2383 15.1653 51.7983 14.7867 52.481 14.488C52.7797 14.3493 53.2917 14.1733 54.017 13.96C54.6997 13.7573 55.2597 13.5653 55.697 13.384C55.8357 13.3307 55.9583 13.304 56.065 13.304C56.257 13.304 56.4117 13.3627 56.529 13.48C56.6463 13.5973 56.705 13.7413 56.705 13.912C56.705 14.04 56.6623 14.168 56.577 14.296C56.5023 14.4133 56.385 14.5147 56.225 14.6C55.969 14.7387 55.6917 14.8667 55.393 14.984C55.0943 15.0907 54.7263 15.208 54.289 15.336C53.8303 15.4747 53.4197 15.608 53.057 15.736C52.321 15.992 51.7663 16.3867 51.393 16.92C51.0303 17.4427 50.8277 18.2 50.785 19.192C51.0197 18.616 51.3983 18.1467 51.921 17.784C52.4543 17.4107 53.0783 17.224 53.793 17.224C54.8277 17.224 55.649 17.56 56.257 18.232C56.8757 18.8933 57.185 19.8533 57.185 21.112C57.185 21.8587 57.0303 22.536 56.721 23.144C56.4117 23.752 55.9637 24.232 55.377 24.584C54.7903 24.936 54.1023 25.112 53.313 25.112ZM53.329 23.832C54.0863 23.832 54.6463 23.5707 55.009 23.048C55.3717 22.5147 55.553 21.8853 55.553 21.16C55.553 20.3173 55.3663 19.672 54.993 19.224C54.6197 18.7653 54.1077 18.536 53.457 18.536C52.721 18.536 52.1503 18.7973 51.745 19.32C51.3503 19.832 51.153 20.4507 51.153 21.176C51.153 21.9333 51.329 22.568 51.681 23.08C52.033 23.5813 52.5823 23.832 53.329 23.832ZM63.1714 17C63.8434 17 64.4407 17.1707 64.9634 17.512C65.4967 17.8533 65.9074 18.3333 66.1954 18.952C66.494 19.5707 66.6434 20.2853 66.6434 21.096C66.6434 21.896 66.4994 22.6 66.2114 23.208C65.9234 23.816 65.5127 24.2853 64.9794 24.616C64.4567 24.9467 63.854 25.112 63.1714 25.112C62.5847 25.112 62.0674 24.9893 61.6194 24.744C61.1714 24.488 60.83 24.1253 60.5954 23.656V27.224C60.5954 27.448 60.5207 27.624 60.3714 27.752C60.2327 27.8907 60.046 27.96 59.8114 27.96C59.566 27.96 59.3634 27.8907 59.2034 27.752C59.054 27.6133 58.9794 27.4267 58.9794 27.192V17.816C58.9794 17.5813 59.054 17.3947 59.2034 17.256C59.3527 17.1067 59.55 17.032 59.7954 17.032C60.03 17.032 60.222 17.1067 60.3714 17.256C60.5207 17.3947 60.5954 17.5813 60.5954 17.816V18.472C60.83 18.0027 61.1714 17.64 61.6194 17.384C62.0674 17.128 62.5847 17 63.1714 17ZM62.7874 23.832C63.4914 23.832 64.0354 23.5973 64.4194 23.128C64.8034 22.648 64.9954 21.9707 64.9954 21.096C64.9954 20.2107 64.798 19.5227 64.4034 19.032C64.0194 18.5413 63.4807 18.296 62.7874 18.296C62.0834 18.296 61.5394 18.536 61.1554 19.016C60.782 19.496 60.5954 20.1787 60.5954 21.064C60.5954 21.9493 60.782 22.632 61.1554 23.112C61.5394 23.592 62.0834 23.832 62.7874 23.832ZM71.7125 17C72.7472 17 73.5152 17.2613 74.0165 17.784C74.5285 18.3067 74.7845 19.1013 74.7845 20.168V24.312C74.7845 24.5573 74.7152 24.7493 74.5765 24.888C74.4378 25.016 74.2458 25.08 74.0005 25.08C73.7658 25.08 73.5792 25.0107 73.4405 24.872C73.3018 24.7333 73.2325 24.5467 73.2325 24.312V23.72C73.0298 24.168 72.7258 24.5147 72.3205 24.76C71.9258 24.9947 71.4618 25.112 70.9285 25.112C70.4165 25.112 69.9472 25.0107 69.5205 24.808C69.1045 24.5947 68.7738 24.3067 68.5285 23.944C68.2832 23.5813 68.1605 23.1707 68.1605 22.712C68.1498 22.136 68.2938 21.688 68.5925 21.368C68.8912 21.0373 69.3765 20.8027 70.0485 20.664C70.7205 20.5147 71.6538 20.44 72.8485 20.44H73.2165V19.976C73.2165 19.3787 73.0938 18.9467 72.8485 18.68C72.6032 18.4133 72.2085 18.28 71.6645 18.28C71.2912 18.28 70.9392 18.328 70.6085 18.424C70.2778 18.52 69.9152 18.6587 69.5205 18.84C69.2325 19 69.0298 19.08 68.9125 19.08C68.7525 19.08 68.6192 19.0213 68.5125 18.904C68.4165 18.7867 68.3685 18.6373 68.3685 18.456C68.3685 18.296 68.4112 18.1573 68.4965 18.04C68.5925 17.912 68.7418 17.7893 68.9445 17.672C69.3178 17.4693 69.7552 17.3093 70.2565 17.192C70.7578 17.064 71.2432 17 71.7125 17ZM71.2165 23.912C71.8032 23.912 72.2832 23.7147 72.6565 23.32C73.0298 22.9147 73.2165 22.3973 73.2165 21.768V21.352H72.9285C72.0965 21.352 71.4565 21.3893 71.0085 21.464C70.5605 21.5387 70.2405 21.6667 70.0485 21.848C69.8565 22.0187 69.7605 22.2693 69.7605 22.6C69.7605 22.984 69.8992 23.2987 70.1765 23.544C70.4538 23.7893 70.8005 23.912 71.2165 23.912ZM79.571 25.08C79.3257 25.08 79.1283 25.0107 78.979 24.872C78.8297 24.7333 78.755 24.5467 78.755 24.312V18.44H76.675C76.483 18.44 76.3283 18.3813 76.211 18.264C76.0937 18.1467 76.035 17.9973 76.035 17.816C76.035 17.6347 76.0937 17.4853 76.211 17.368C76.3283 17.2507 76.483 17.192 76.675 17.192H82.451C82.6537 17.192 82.8137 17.2507 82.931 17.368C83.0483 17.4853 83.107 17.6347 83.107 17.816C83.107 17.9973 83.0483 18.1467 82.931 18.264C82.8137 18.3813 82.6537 18.44 82.451 18.44H80.371V24.312C80.371 24.5467 80.2963 24.7333 80.147 24.872C80.0083 25.0107 79.8163 25.08 79.571 25.08ZM85.17 25C84.914 25 84.7113 24.9307 84.562 24.792C84.4127 24.6533 84.338 24.4613 84.338 24.216V17.8C84.338 17.5653 84.4127 17.3787 84.562 17.24C84.7113 17.1013 84.9087 17.032 85.154 17.032C85.3993 17.032 85.5913 17.1013 85.73 17.24C85.8793 17.3787 85.954 17.5653 85.954 17.8V19.896H87.522C89.5273 19.896 90.53 20.7067 90.53 22.328C90.53 22.9253 90.3807 23.4267 90.082 23.832C89.794 24.2267 89.4153 24.52 88.946 24.712C88.4873 24.904 87.9913 25 87.458 25H85.17ZM87.138 23.848C87.6287 23.848 88.0447 23.7253 88.386 23.48C88.738 23.2347 88.914 22.8613 88.914 22.36C88.914 21.4853 88.322 21.048 87.138 21.048H85.938V23.848H87.138Z" fill="#D15700"/>
</svg>
