<svg width="120" height="40" viewBox="0 0 120 40" fill="none" xmlns="http://www.w3.org/2000/svg">
<rect width="120" height="40" rx="20" fill="#F96900"/>
<path d="M34.7162 25.128C33.6389 25.128 32.7002 24.8987 31.9002 24.44C31.1002 23.9707 30.4869 23.304 30.0602 22.44C29.6335 21.5653 29.4202 20.536 29.4202 19.352C29.4202 18.1787 29.6335 17.16 30.0602 16.296C30.4869 15.4213 31.1002 14.7547 31.9002 14.296C32.7002 13.8267 33.6389 13.592 34.7162 13.592C35.4202 13.592 36.0869 13.704 36.7162 13.928C37.3455 14.1413 37.8949 14.456 38.3642 14.872C38.5669 15.032 38.6682 15.2453 38.6682 15.512C38.6682 15.704 38.6149 15.8693 38.5082 16.008C38.4015 16.136 38.2735 16.2 38.1242 16.2C37.9429 16.2 37.7669 16.1307 37.5962 15.992C37.0842 15.608 36.6149 15.3413 36.1882 15.192C35.7722 15.032 35.2975 14.952 34.7642 14.952C33.5909 14.952 32.6895 15.3307 32.0602 16.088C31.4309 16.8453 31.1162 17.9333 31.1162 19.352C31.1162 20.7813 31.4309 21.8747 32.0602 22.632C32.6895 23.3893 33.5909 23.768 34.7642 23.768C35.2762 23.768 35.7402 23.688 36.1562 23.528C36.5829 23.368 37.0629 23.1013 37.5962 22.728C37.8095 22.5893 37.9855 22.52 38.1242 22.52C38.2735 22.52 38.4015 22.5893 38.5082 22.728C38.6149 22.856 38.6682 23.016 38.6682 23.208C38.6682 23.4747 38.5669 23.688 38.3642 23.848C37.8949 24.264 37.3455 24.584 36.7162 24.808C36.0869 25.0213 35.4202 25.128 34.7162 25.128ZM43.6761 25.112C42.9081 25.112 42.2307 24.9467 41.6441 24.616C41.0681 24.2853 40.6201 23.816 40.3001 23.208C39.9907 22.5893 39.8361 21.8747 39.8361 21.064C39.8361 20.2427 39.9907 19.528 40.3001 18.92C40.6201 18.3013 41.0681 17.8267 41.6441 17.496C42.2307 17.1653 42.9081 17 43.6761 17C44.4441 17 45.1161 17.1653 45.6921 17.496C46.2787 17.8267 46.7267 18.3013 47.0361 18.92C47.3561 19.528 47.5161 20.2427 47.5161 21.064C47.5161 21.8747 47.3561 22.5893 47.0361 23.208C46.7267 23.816 46.2787 24.2853 45.6921 24.616C45.1161 24.9467 44.4441 25.112 43.6761 25.112ZM43.6761 23.832C44.3907 23.832 44.9347 23.5973 45.3081 23.128C45.6921 22.6587 45.8841 21.9707 45.8841 21.064C45.8841 20.168 45.6921 19.4853 45.3081 19.016C44.9241 18.536 44.3801 18.296 43.6761 18.296C42.9721 18.296 42.4281 18.536 42.0441 19.016C41.6601 19.4853 41.4681 20.168 41.4681 21.064C41.4681 21.9707 41.6547 22.6587 42.0281 23.128C42.4121 23.5973 42.9614 23.832 43.6761 23.832ZM52.8833 25.112C51.5926 25.112 50.6273 24.6747 49.9873 23.8C49.358 22.9253 49.0433 21.816 49.0433 20.472C49.0433 19.2453 49.1553 18.2427 49.3793 17.464C49.6033 16.6853 49.934 16.072 50.3713 15.624C50.8086 15.1653 51.3686 14.7867 52.0513 14.488C52.35 14.3493 52.862 14.1733 53.5873 13.96C54.27 13.7573 54.83 13.5653 55.2673 13.384C55.406 13.3307 55.5286 13.304 55.6353 13.304C55.8273 13.304 55.982 13.3627 56.0993 13.48C56.2166 13.5973 56.2753 13.7413 56.2753 13.912C56.2753 14.04 56.2326 14.168 56.1473 14.296C56.0726 14.4133 55.9553 14.5147 55.7953 14.6C55.5393 14.7387 55.262 14.8667 54.9633 14.984C54.6646 15.0907 54.2966 15.208 53.8593 15.336C53.4006 15.4747 52.99 15.608 52.6273 15.736C51.8913 15.992 51.3366 16.3867 50.9633 16.92C50.6006 17.4427 50.398 18.2 50.3553 19.192C50.59 18.616 50.9686 18.1467 51.4913 17.784C52.0246 17.4107 52.6486 17.224 53.3633 17.224C54.398 17.224 55.2193 17.56 55.8273 18.232C56.446 18.8933 56.7553 19.8533 56.7553 21.112C56.7553 21.8587 56.6006 22.536 56.2913 23.144C55.982 23.752 55.534 24.232 54.9473 24.584C54.3606 24.936 53.6726 25.112 52.8833 25.112ZM52.8993 23.832C53.6566 23.832 54.2166 23.5707 54.5793 23.048C54.942 22.5147 55.1233 21.8853 55.1233 21.16C55.1233 20.3173 54.9366 19.672 54.5633 19.224C54.19 18.7653 53.678 18.536 53.0273 18.536C52.2913 18.536 51.7206 18.7973 51.3153 19.32C50.9206 19.832 50.7233 20.4507 50.7233 21.176C50.7233 21.9333 50.8993 22.568 51.2513 23.08C51.6033 23.5813 52.1526 23.832 52.8993 23.832ZM62.7417 17C63.4137 17 64.011 17.1707 64.5337 17.512C65.067 17.8533 65.4777 18.3333 65.7657 18.952C66.0644 19.5707 66.2137 20.2853 66.2137 21.096C66.2137 21.896 66.0697 22.6 65.7817 23.208C65.4937 23.816 65.083 24.2853 64.5497 24.616C64.027 24.9467 63.4244 25.112 62.7417 25.112C62.155 25.112 61.6377 24.9893 61.1897 24.744C60.7417 24.488 60.4004 24.1253 60.1657 23.656V27.224C60.1657 27.448 60.091 27.624 59.9417 27.752C59.803 27.8907 59.6164 27.96 59.3817 27.96C59.1364 27.96 58.9337 27.8907 58.7737 27.752C58.6244 27.6133 58.5497 27.4267 58.5497 27.192V17.816C58.5497 17.5813 58.6244 17.3947 58.7737 17.256C58.923 17.1067 59.1204 17.032 59.3657 17.032C59.6004 17.032 59.7924 17.1067 59.9417 17.256C60.091 17.3947 60.1657 17.5813 60.1657 17.816V18.472C60.4004 18.0027 60.7417 17.64 61.1897 17.384C61.6377 17.128 62.155 17 62.7417 17ZM62.3577 23.832C63.0617 23.832 63.6057 23.5973 63.9897 23.128C64.3737 22.648 64.5657 21.9707 64.5657 21.096C64.5657 20.2107 64.3684 19.5227 63.9737 19.032C63.5897 18.5413 63.051 18.296 62.3577 18.296C61.6537 18.296 61.1097 18.536 60.7257 19.016C60.3524 19.496 60.1657 20.1787 60.1657 21.064C60.1657 21.9493 60.3524 22.632 60.7257 23.112C61.1097 23.592 61.6537 23.832 62.3577 23.832ZM71.2828 17C72.3175 17 73.0855 17.2613 73.5868 17.784C74.0988 18.3067 74.3548 19.1013 74.3548 20.168V24.312C74.3548 24.5573 74.2855 24.7493 74.1468 24.888C74.0081 25.016 73.8161 25.08 73.5708 25.08C73.3361 25.08 73.1495 25.0107 73.0108 24.872C72.8721 24.7333 72.8028 24.5467 72.8028 24.312V23.72C72.6001 24.168 72.2961 24.5147 71.8908 24.76C71.4961 24.9947 71.0321 25.112 70.4988 25.112C69.9868 25.112 69.5175 25.0107 69.0908 24.808C68.6748 24.5947 68.3441 24.3067 68.0988 23.944C67.8535 23.5813 67.7308 23.1707 67.7308 22.712C67.7201 22.136 67.8641 21.688 68.1628 21.368C68.4615 21.0373 68.9468 20.8027 69.6188 20.664C70.2908 20.5147 71.2241 20.44 72.4188 20.44H72.7868V19.976C72.7868 19.3787 72.6641 18.9467 72.4188 18.68C72.1735 18.4133 71.7788 18.28 71.2348 18.28C70.8615 18.28 70.5095 18.328 70.1788 18.424C69.8481 18.52 69.4855 18.6587 69.0908 18.84C68.8028 19 68.6001 19.08 68.4828 19.08C68.3228 19.08 68.1895 19.0213 68.0828 18.904C67.9868 18.7867 67.9388 18.6373 67.9388 18.456C67.9388 18.296 67.9815 18.1573 68.0668 18.04C68.1628 17.912 68.3121 17.7893 68.5148 17.672C68.8881 17.4693 69.3255 17.3093 69.8268 17.192C70.3281 17.064 70.8135 17 71.2828 17ZM70.7868 23.912C71.3735 23.912 71.8535 23.7147 72.2268 23.32C72.6001 22.9147 72.7868 22.3973 72.7868 21.768V21.352H72.4988C71.6668 21.352 71.0268 21.3893 70.5788 21.464C70.1308 21.5387 69.8108 21.6667 69.6188 21.848C69.4268 22.0187 69.3308 22.2693 69.3308 22.6C69.3308 22.984 69.4695 23.2987 69.7468 23.544C70.0241 23.7893 70.3708 23.912 70.7868 23.912ZM79.1413 25.08C78.896 25.08 78.6986 25.0107 78.5493 24.872C78.4 24.7333 78.3253 24.5467 78.3253 24.312V18.44H76.2453C76.0533 18.44 75.8986 18.3813 75.7813 18.264C75.664 18.1467 75.6053 17.9973 75.6053 17.816C75.6053 17.6347 75.664 17.4853 75.7813 17.368C75.8986 17.2507 76.0533 17.192 76.2453 17.192H82.0213C82.224 17.192 82.384 17.2507 82.5013 17.368C82.6186 17.4853 82.6773 17.6347 82.6773 17.816C82.6773 17.9973 82.6186 18.1467 82.5013 18.264C82.384 18.3813 82.224 18.44 82.0213 18.44H79.9413V24.312C79.9413 24.5467 79.8666 24.7333 79.7173 24.872C79.5786 25.0107 79.3866 25.08 79.1413 25.08ZM84.7403 25C84.4843 25 84.2816 24.9307 84.1323 24.792C83.983 24.6533 83.9083 24.4613 83.9083 24.216V17.8C83.9083 17.5653 83.983 17.3787 84.1323 17.24C84.2816 17.1013 84.479 17.032 84.7243 17.032C84.9696 17.032 85.1616 17.1013 85.3003 17.24C85.4496 17.3787 85.5243 17.5653 85.5243 17.8V19.896H87.0923C89.0976 19.896 90.1003 20.7067 90.1003 22.328C90.1003 22.9253 89.951 23.4267 89.6523 23.832C89.3643 24.2267 88.9856 24.52 88.5163 24.712C88.0576 24.904 87.5616 25 87.0283 25H84.7403ZM86.7083 23.848C87.199 23.848 87.615 23.7253 87.9563 23.48C88.3083 23.2347 88.4843 22.8613 88.4843 22.36C88.4843 21.4853 87.8923 21.048 86.7083 21.048H85.5083V23.848H86.7083Z" fill="white"/>
</svg>
