<svg width="104" height="40" viewBox="0 0 104 40" fill="none" xmlns="http://www.w3.org/2000/svg">
<rect width="104" height="40" rx="20" fill="#F96900"/>
<path d="M21.5811 25.08C21.3358 25.08 21.1385 25.0053 20.9891 24.856C20.8398 24.7067 20.7651 24.504 20.7651 24.248V14.456C20.7651 14.2107 20.8398 14.0133 20.9891 13.864C21.1385 13.7147 21.3358 13.64 21.5811 13.64C21.8265 13.64 22.0238 13.7147 22.1731 13.864C22.3225 14.0133 22.3971 14.2107 22.3971 14.456V18.6H24.0291L27.7731 13.96C27.9438 13.7467 28.1465 13.64 28.3811 13.64C28.5731 13.64 28.7385 13.7093 28.8771 13.848C29.0265 13.9867 29.1011 14.152 29.1011 14.344C29.1011 14.5253 29.0318 14.7013 28.8931 14.872L25.6291 18.888C26.0131 19.0053 26.3278 19.1547 26.5731 19.336C26.8291 19.5173 27.0585 19.752 27.2611 20.04C27.4745 20.328 27.7305 20.7387 28.0291 21.272L29.4851 23.864C29.5705 24.0347 29.6131 24.184 29.6131 24.312C29.6131 24.5253 29.5331 24.7067 29.3731 24.856C29.2131 25.0053 29.0318 25.08 28.8291 25.08C28.5198 25.08 28.2851 24.9307 28.1251 24.632L26.4451 21.592C26.0931 20.984 25.7465 20.5573 25.4051 20.312C25.0745 20.0667 24.6105 19.944 24.0131 19.944H22.3971V24.248C22.3971 24.504 22.3225 24.7067 22.1731 24.856C22.0238 25.0053 21.8265 25.08 21.5811 25.08ZM34.5589 25.112C33.7909 25.112 33.1135 24.9467 32.5269 24.616C31.9509 24.2853 31.5029 23.816 31.1829 23.208C30.8735 22.5893 30.7189 21.8747 30.7189 21.064C30.7189 20.2427 30.8735 19.528 31.1829 18.92C31.5029 18.3013 31.9509 17.8267 32.5269 17.496C33.1135 17.1653 33.7909 17 34.5589 17C35.3269 17 35.9989 17.1653 36.5749 17.496C37.1615 17.8267 37.6095 18.3013 37.9189 18.92C38.2389 19.528 38.3989 20.2427 38.3989 21.064C38.3989 21.8747 38.2389 22.5893 37.9189 23.208C37.6095 23.816 37.1615 24.2853 36.5749 24.616C35.9989 24.9467 35.3269 25.112 34.5589 25.112ZM34.5589 23.832C35.2735 23.832 35.8175 23.5973 36.1909 23.128C36.5749 22.6587 36.7669 21.9707 36.7669 21.064C36.7669 20.168 36.5749 19.4853 36.1909 19.016C35.8069 18.536 35.2629 18.296 34.5589 18.296C33.8549 18.296 33.3109 18.536 32.9269 19.016C32.5429 19.4853 32.3509 20.168 32.3509 21.064C32.3509 21.9707 32.5375 22.6587 32.9109 23.128C33.2949 23.5973 33.8442 23.832 34.5589 23.832ZM44.3901 17C45.0621 17 45.6595 17.1707 46.1821 17.512C46.7155 17.8533 47.1261 18.3333 47.4141 18.952C47.7128 19.5707 47.8621 20.2853 47.8621 21.096C47.8621 21.896 47.7181 22.6 47.4301 23.208C47.1421 23.816 46.7315 24.2853 46.1981 24.616C45.6755 24.9467 45.0728 25.112 44.3901 25.112C43.8035 25.112 43.2861 24.9893 42.8381 24.744C42.3901 24.488 42.0488 24.1253 41.8141 23.656V27.224C41.8141 27.448 41.7395 27.624 41.5901 27.752C41.4515 27.8907 41.2648 27.96 41.0301 27.96C40.7848 27.96 40.5821 27.8907 40.4221 27.752C40.2728 27.6133 40.1981 27.4267 40.1981 27.192V17.816C40.1981 17.5813 40.2728 17.3947 40.4221 17.256C40.5715 17.1067 40.7688 17.032 41.0141 17.032C41.2488 17.032 41.4408 17.1067 41.5901 17.256C41.7395 17.3947 41.8141 17.5813 41.8141 17.816V18.472C42.0488 18.0027 42.3901 17.64 42.8381 17.384C43.2861 17.128 43.8035 17 44.3901 17ZM44.0061 23.832C44.7101 23.832 45.2541 23.5973 45.6381 23.128C46.0221 22.648 46.2141 21.9707 46.2141 21.096C46.2141 20.2107 46.0168 19.5227 45.6221 19.032C45.2381 18.5413 44.6995 18.296 44.0061 18.296C43.3021 18.296 42.7581 18.536 42.3741 19.016C42.0008 19.496 41.8141 20.1787 41.8141 21.064C41.8141 21.9493 42.0008 22.632 42.3741 23.112C42.7581 23.592 43.3021 23.832 44.0061 23.832ZM52.1793 25.112C51.0913 25.112 50.1633 24.8827 49.3953 24.424C49.1179 24.2747 48.9793 24.0667 48.9793 23.8C48.9793 23.64 49.0379 23.5067 49.1553 23.4C49.2726 23.2827 49.4219 23.224 49.6033 23.224C49.7313 23.224 49.8593 23.256 49.9873 23.32C50.3179 23.5013 50.6433 23.6347 50.9633 23.72C51.2939 23.8053 51.6566 23.848 52.0513 23.848C52.5739 23.848 53.0273 23.7467 53.4113 23.544C53.7953 23.3413 53.9873 23.032 53.9873 22.616C53.9873 21.9333 53.5019 21.592 52.5312 21.592H51.3953C51.2139 21.592 51.0646 21.5387 50.9473 21.432C50.8406 21.3147 50.7873 21.1653 50.7873 20.984C50.7873 20.8133 50.8459 20.6747 50.9633 20.568C51.0806 20.4507 51.2246 20.392 51.3953 20.392H52.4353C52.8833 20.392 53.2246 20.296 53.4593 20.104C53.7046 19.9013 53.8273 19.64 53.8273 19.32C53.8273 18.9893 53.6886 18.7387 53.4113 18.568C53.1339 18.3867 52.7393 18.296 52.2273 18.296C51.8113 18.296 51.4433 18.3387 51.1233 18.424C50.8139 18.5093 50.4993 18.6373 50.1793 18.808C50.0513 18.8613 49.9339 18.888 49.8273 18.888C49.6566 18.888 49.5073 18.8293 49.3793 18.712C49.2619 18.5947 49.2033 18.4613 49.2033 18.312C49.2033 18.0453 49.3473 17.8427 49.6353 17.704C50.4779 17.2347 51.4379 17 52.5153 17C53.5073 17 54.2539 17.192 54.7553 17.576C55.2673 17.96 55.5233 18.472 55.5233 19.112C55.5233 19.5067 55.4006 19.8693 55.1553 20.2C54.9099 20.5307 54.5686 20.7707 54.1313 20.92C55.1553 21.144 55.6673 21.7467 55.6673 22.728C55.6673 23.208 55.5126 23.6293 55.2033 23.992C54.8939 24.3547 54.4726 24.632 53.9393 24.824C53.4059 25.016 52.8193 25.112 52.1793 25.112ZM62.7918 17.608C62.9411 17.3947 63.0851 17.2453 63.2238 17.16C63.3624 17.0747 63.5491 17.032 63.7838 17.032C64.0398 17.032 64.2424 17.1067 64.3918 17.256C64.5411 17.3947 64.6158 17.5867 64.6158 17.832V24.296C64.6158 24.5307 64.5464 24.7227 64.4078 24.872C64.2691 25.0107 64.0824 25.08 63.8478 25.08C63.6238 25.08 63.4371 25.0107 63.2878 24.872C63.1491 24.7227 63.0798 24.5307 63.0798 24.296V19.208L59.2398 24.536C59.0904 24.7493 58.9411 24.8933 58.7918 24.968C58.6531 25.0427 58.4771 25.08 58.2638 25.08C58.0184 25.08 57.8158 25.0107 57.6558 24.872C57.5064 24.7227 57.4318 24.5307 57.4318 24.296V17.816C57.4318 17.592 57.5011 17.4053 57.6398 17.256C57.7891 17.1067 57.9811 17.032 58.2158 17.032C58.4398 17.032 58.6211 17.1067 58.7598 17.256C58.9091 17.4053 58.9838 17.592 58.9838 17.816V22.856L62.7918 17.608ZM67.6228 25.08C67.3774 25.08 67.1801 25.0107 67.0308 24.872C66.8814 24.7333 66.8068 24.5467 66.8068 24.312V17.8C66.8068 17.5653 66.8814 17.3787 67.0308 17.24C67.1801 17.1013 67.3774 17.032 67.6228 17.032C67.8681 17.032 68.0601 17.1013 68.1988 17.24C68.3481 17.3787 68.4228 17.5653 68.4228 17.8V20.36H72.2628V17.8C72.2628 17.5653 72.3374 17.3787 72.4868 17.24C72.6361 17.1013 72.8334 17.032 73.0788 17.032C73.3241 17.032 73.5161 17.1013 73.6548 17.24C73.8041 17.3787 73.8788 17.5653 73.8788 17.8L73.8948 24.264C73.8948 24.5093 73.8201 24.7067 73.6708 24.856C73.5214 25.0053 73.3241 25.08 73.0788 25.08C72.8334 25.08 72.6361 25.0053 72.4868 24.856C72.3374 24.7067 72.2628 24.5093 72.2628 24.264V21.64H68.4228V24.312C68.4228 24.5467 68.3481 24.7333 68.1988 24.872C68.0601 25.0107 67.8681 25.08 67.6228 25.08ZM79.3844 17C80.419 17 81.187 17.2613 81.6884 17.784C82.2004 18.3067 82.4564 19.1013 82.4564 20.168V24.312C82.4564 24.5573 82.387 24.7493 82.2484 24.888C82.1097 25.016 81.9177 25.08 81.6724 25.08C81.4377 25.08 81.251 25.0107 81.1124 24.872C80.9737 24.7333 80.9044 24.5467 80.9044 24.312V23.72C80.7017 24.168 80.3977 24.5147 79.9924 24.76C79.5977 24.9947 79.1337 25.112 78.6004 25.112C78.0884 25.112 77.619 25.0107 77.1924 24.808C76.7764 24.5947 76.4457 24.3067 76.2004 23.944C75.955 23.5813 75.8324 23.1707 75.8324 22.712C75.8217 22.136 75.9657 21.688 76.2644 21.368C76.563 21.0373 77.0484 20.8027 77.7204 20.664C78.3924 20.5147 79.3257 20.44 80.5204 20.44H80.8884V19.976C80.8884 19.3787 80.7657 18.9467 80.5204 18.68C80.275 18.4133 79.8804 18.28 79.3364 18.28C78.963 18.28 78.611 18.328 78.2804 18.424C77.9497 18.52 77.587 18.6587 77.1924 18.84C76.9044 19 76.7017 19.08 76.5844 19.08C76.4244 19.08 76.291 19.0213 76.1844 18.904C76.0884 18.7867 76.0404 18.6373 76.0404 18.456C76.0404 18.296 76.083 18.1573 76.1684 18.04C76.2644 17.912 76.4137 17.7893 76.6164 17.672C76.9897 17.4693 77.427 17.3093 77.9284 17.192C78.4297 17.064 78.915 17 79.3844 17ZM78.8884 23.912C79.475 23.912 79.955 23.7147 80.3284 23.32C80.7017 22.9147 80.8884 22.3973 80.8884 21.768V21.352H80.6004C79.7684 21.352 79.1284 21.3893 78.6804 21.464C78.2324 21.5387 77.9124 21.6667 77.7204 21.848C77.5284 22.0187 77.4324 22.2693 77.4324 22.6C77.4324 22.984 77.571 23.2987 77.8484 23.544C78.1257 23.7893 78.4724 23.912 78.8884 23.912Z" fill="white"/>
</svg>
