<svg width="120" height="40" viewBox="0 0 120 40" fill="none" xmlns="http://www.w3.org/2000/svg">
<rect width="120" height="40" rx="20" fill="#FFF0E6"/>
<path d="M29.0848 19.192C29.7355 19.3733 30.2368 19.6987 30.5888 20.168C30.9515 20.6373 31.1328 21.224 31.1328 21.928C31.1328 22.8987 30.7968 23.656 30.1248 24.2C29.4635 24.7333 28.5355 25 27.3408 25H23.2608C23.0048 25 22.8021 24.9307 22.6528 24.792C22.5141 24.6427 22.4448 24.4453 22.4448 24.2V14.52C22.4448 14.2747 22.5141 14.0827 22.6528 13.944C22.8021 13.7947 23.0048 13.72 23.2608 13.72H27.1648C28.3275 13.72 29.2341 13.9813 29.8848 14.504C30.5461 15.016 30.8768 15.736 30.8768 16.664C30.8768 17.2613 30.7168 17.7787 30.3968 18.216C30.0875 18.6533 29.6501 18.9787 29.0848 19.192ZM24.0608 18.6H26.9088C28.4875 18.6 29.2768 18.0027 29.2768 16.808C29.2768 16.2107 29.0795 15.768 28.6848 15.48C28.3008 15.192 27.7088 15.048 26.9088 15.048H24.0608V18.6ZM27.1648 23.672C27.9861 23.672 28.5888 23.5227 28.9728 23.224C29.3568 22.9253 29.5488 22.4613 29.5488 21.832C29.5488 21.192 29.3515 20.7173 28.9568 20.408C28.5728 20.088 27.9755 19.928 27.1648 19.928H24.0608V23.672H27.1648ZM41.3953 20.744C41.7686 20.872 42.0673 21.0533 42.2913 21.288C42.526 21.5227 42.8033 21.9173 43.1233 22.472L43.9873 23.928C44.062 24.0667 44.0993 24.2 44.0993 24.328C44.0993 24.5413 44.0193 24.7227 43.8593 24.872C43.6993 25.0107 43.5126 25.08 43.2993 25.08C43.022 25.08 42.798 24.9413 42.6273 24.664L41.5073 22.744C41.2513 22.3173 41.006 22.0293 40.7713 21.88C40.5473 21.72 40.2166 21.64 39.7793 21.64H39.0113V24.312C39.0113 24.5467 38.9366 24.7333 38.7873 24.872C38.638 25.0107 38.4406 25.08 38.1953 25.08C37.95 25.08 37.7526 25.0107 37.6033 24.872C37.4646 24.7333 37.3953 24.5467 37.3953 24.312V17.816C37.3953 17.5707 37.4646 17.3787 37.6033 17.24C37.7526 17.1013 37.95 17.032 38.1953 17.032C38.4406 17.032 38.638 17.1067 38.7873 17.256C38.9366 17.3947 39.0113 17.5813 39.0113 17.816V20.408H39.9233L42.4193 17.368C42.6006 17.1547 42.8033 17.048 43.0273 17.048C43.2086 17.048 43.3633 17.112 43.4913 17.24C43.63 17.368 43.6993 17.5227 43.6993 17.704C43.6993 17.896 43.63 18.0773 43.4913 18.248L41.3953 20.744ZM49.1292 25.112C48.3612 25.112 47.6839 24.9467 47.0972 24.616C46.5212 24.2853 46.0732 23.816 45.7532 23.208C45.4439 22.5893 45.2892 21.8747 45.2892 21.064C45.2892 20.2427 45.4439 19.528 45.7532 18.92C46.0732 18.3013 46.5212 17.8267 47.0972 17.496C47.6839 17.1653 48.3612 17 49.1292 17C49.8972 17 50.5692 17.1653 51.1452 17.496C51.7319 17.8267 52.1799 18.3013 52.4892 18.92C52.8092 19.528 52.9692 20.2427 52.9692 21.064C52.9692 21.8747 52.8092 22.5893 52.4892 23.208C52.1799 23.816 51.7319 24.2853 51.1452 24.616C50.5692 24.9467 49.8972 25.112 49.1292 25.112ZM49.1292 23.832C49.8439 23.832 50.3879 23.5973 50.7612 23.128C51.1452 22.6587 51.3372 21.9707 51.3372 21.064C51.3372 20.168 51.1452 19.4853 50.7612 19.016C50.3772 18.536 49.8332 18.296 49.1292 18.296C48.4252 18.296 47.8812 18.536 47.4972 19.016C47.1132 19.4853 46.9212 20.168 46.9212 21.064C46.9212 21.9707 47.1079 22.6587 47.4812 23.128C47.8652 23.5973 48.4145 23.832 49.1292 23.832ZM58.9604 17C59.6324 17 60.2298 17.1707 60.7524 17.512C61.2858 17.8533 61.6964 18.3333 61.9844 18.952C62.2831 19.5707 62.4324 20.2853 62.4324 21.096C62.4324 21.896 62.2884 22.6 62.0004 23.208C61.7124 23.816 61.3018 24.2853 60.7684 24.616C60.2458 24.9467 59.6431 25.112 58.9604 25.112C58.3738 25.112 57.8564 24.9893 57.4084 24.744C56.9604 24.488 56.6191 24.1253 56.3844 23.656V27.224C56.3844 27.448 56.3098 27.624 56.1604 27.752C56.0218 27.8907 55.8351 27.96 55.6004 27.96C55.3551 27.96 55.1524 27.8907 54.9924 27.752C54.8431 27.6133 54.7684 27.4267 54.7684 27.192V17.816C54.7684 17.5813 54.8431 17.3947 54.9924 17.256C55.1418 17.1067 55.3391 17.032 55.5844 17.032C55.8191 17.032 56.0111 17.1067 56.1604 17.256C56.3098 17.3947 56.3844 17.5813 56.3844 17.816V18.472C56.6191 18.0027 56.9604 17.64 57.4084 17.384C57.8564 17.128 58.3738 17 58.9604 17ZM58.5764 23.832C59.2804 23.832 59.8244 23.5973 60.2084 23.128C60.5924 22.648 60.7844 21.9707 60.7844 21.096C60.7844 20.2107 60.5871 19.5227 60.1924 19.032C59.8084 18.5413 59.2698 18.296 58.5764 18.296C57.8724 18.296 57.3284 18.536 56.9444 19.016C56.5711 19.496 56.3844 20.1787 56.3844 21.064C56.3844 21.9493 56.5711 22.632 56.9444 23.112C57.3284 23.592 57.8724 23.832 58.5764 23.832ZM66.7496 25.112C65.6616 25.112 64.7336 24.8827 63.9656 24.424C63.6882 24.2747 63.5496 24.0667 63.5496 23.8C63.5496 23.64 63.6082 23.5067 63.7256 23.4C63.8429 23.2827 63.9922 23.224 64.1736 23.224C64.3016 23.224 64.4296 23.256 64.5576 23.32C64.8882 23.5013 65.2136 23.6347 65.5336 23.72C65.8642 23.8053 66.2269 23.848 66.6216 23.848C67.1442 23.848 67.5976 23.7467 67.9816 23.544C68.3656 23.3413 68.5576 23.032 68.5576 22.616C68.5576 21.9333 68.0722 21.592 67.1016 21.592H65.9656C65.7842 21.592 65.6349 21.5387 65.5176 21.432C65.4109 21.3147 65.3576 21.1653 65.3576 20.984C65.3576 20.8133 65.4162 20.6747 65.5336 20.568C65.6509 20.4507 65.7949 20.392 65.9656 20.392H67.0056C67.4536 20.392 67.7949 20.296 68.0296 20.104C68.2749 19.9013 68.3976 19.64 68.3976 19.32C68.3976 18.9893 68.2589 18.7387 67.9816 18.568C67.7042 18.3867 67.3096 18.296 66.7976 18.296C66.3816 18.296 66.0136 18.3387 65.6936 18.424C65.3842 18.5093 65.0696 18.6373 64.7496 18.808C64.6216 18.8613 64.5042 18.888 64.3976 18.888C64.2269 18.888 64.0776 18.8293 63.9496 18.712C63.8322 18.5947 63.7736 18.4613 63.7736 18.312C63.7736 18.0453 63.9176 17.8427 64.2056 17.704C65.0482 17.2347 66.0082 17 67.0856 17C68.0776 17 68.8242 17.192 69.3256 17.576C69.8376 17.96 70.0936 18.472 70.0936 19.112C70.0936 19.5067 69.9709 19.8693 69.7256 20.2C69.4802 20.5307 69.1389 20.7707 68.7016 20.92C69.7256 21.144 70.2376 21.7467 70.2376 22.728C70.2376 23.208 70.0829 23.6293 69.7736 23.992C69.4642 24.3547 69.0429 24.632 68.5096 24.824C67.9762 25.016 67.3896 25.112 66.7496 25.112ZM77.3621 17.608C77.5114 17.3947 77.6554 17.2453 77.7941 17.16C77.9327 17.0747 78.1194 17.032 78.3541 17.032C78.6101 17.032 78.8127 17.1067 78.9621 17.256C79.1114 17.3947 79.1861 17.5867 79.1861 17.832V24.296C79.1861 24.5307 79.1167 24.7227 78.9781 24.872C78.8394 25.0107 78.6527 25.08 78.4181 25.08C78.1941 25.08 78.0074 25.0107 77.8581 24.872C77.7194 24.7227 77.6501 24.5307 77.6501 24.296V19.208L73.8101 24.536C73.6607 24.7493 73.5114 24.8933 73.3621 24.968C73.2234 25.0427 73.0474 25.08 72.8341 25.08C72.5887 25.08 72.3861 25.0107 72.2261 24.872C72.0767 24.7227 72.0021 24.5307 72.0021 24.296V17.816C72.0021 17.592 72.0714 17.4053 72.2101 17.256C72.3594 17.1067 72.5514 17.032 72.7861 17.032C73.0101 17.032 73.1914 17.1067 73.3301 17.256C73.4794 17.4053 73.5541 17.592 73.5541 17.816V22.856L77.3621 17.608ZM82.1931 25.08C81.9477 25.08 81.7504 25.0107 81.6011 24.872C81.4517 24.7333 81.3771 24.5467 81.3771 24.312V17.8C81.3771 17.5653 81.4517 17.3787 81.6011 17.24C81.7504 17.1013 81.9477 17.032 82.1931 17.032C82.4384 17.032 82.6304 17.1013 82.7691 17.24C82.9184 17.3787 82.9931 17.5653 82.9931 17.8V20.36H86.8331V17.8C86.8331 17.5653 86.9077 17.3787 87.0571 17.24C87.2064 17.1013 87.4037 17.032 87.6491 17.032C87.8944 17.032 88.0864 17.1013 88.2251 17.24C88.3744 17.3787 88.4491 17.5653 88.4491 17.8L88.4651 24.264C88.4651 24.5093 88.3904 24.7067 88.2411 24.856C88.0917 25.0053 87.8944 25.08 87.6491 25.08C87.4037 25.08 87.2064 25.0053 87.0571 24.856C86.9077 24.7067 86.8331 24.5093 86.8331 24.264V21.64H82.9931V24.312C82.9931 24.5467 82.9184 24.7333 82.7691 24.872C82.6304 25.0107 82.4384 25.08 82.1931 25.08ZM96.2267 17.512C96.2907 17.352 96.3814 17.2347 96.4987 17.16C96.6267 17.0853 96.76 17.048 96.8987 17.048C97.1014 17.048 97.2774 17.1173 97.4267 17.256C97.5867 17.3947 97.6667 17.56 97.6667 17.752C97.6667 17.8587 97.6454 17.96 97.6027 18.056L93.1547 27.496C93.0907 27.6453 92.9947 27.7573 92.8667 27.832C92.7494 27.9173 92.6214 27.96 92.4827 27.96C92.2907 27.96 92.1147 27.896 91.9547 27.768C91.8054 27.64 91.7307 27.48 91.7307 27.288C91.7307 27.2027 91.7574 27.096 91.8107 26.968L92.9147 24.616L89.8267 18.056C89.784 17.9707 89.7627 17.8747 89.7627 17.768C89.7627 17.5653 89.848 17.3947 90.0187 17.256C90.1894 17.1173 90.3814 17.048 90.5947 17.048C90.9147 17.048 91.144 17.1973 91.2827 17.496L93.7627 23L96.2267 17.512Z" fill="#D15700"/>
</svg>
